<?xml version="1.0" encoding="utf-8"?>
<!-- Generator: Adobe Illustrator 24.2.0, SVG Export Plug-In . SVG Version: 6.00 Build 0)  -->
<svg version="1.1" id="图层_1" xmlns="http://www.w3.org/2000/svg" xmlns:xlink="http://www.w3.org/1999/xlink" x="0px" y="0px"
	 viewBox="0 0 144 144" style="enable-background:new 0 0 144 144;" xml:space="preserve">
<path d="M141.6,39.9l-6.9-8.3c-3.3-4-9.5-7-14.4-7H86v-5.4c0-7.6-6.3-13.7-14-13.7s-14,6.2-14,13.8v21.4H23.7c-4.8,0-11,3-14.4,7
	L2.4,56c-3.8,4.6-3.8,11.7,0,16.2l6.9,8.3c3.3,4,9.5,7,14.4,7H44v-8.4H23.7c-2.3,0-6.1-1.9-7.8-3.9l-7-8.3c-1.2-1.4-1.2-4.1,0-5.5
	l7-8.3c1.7-2,5.5-3.9,7.8-3.9H58v81.1H25.5v8.4h93v-8.4H86V71.4h34.3c4.8,0,11-3,14.4-7l6.9-8.3C145.4,51.6,145.4,44.4,141.6,39.9z
	 M77.5,59.5v70.6h-11V19.3c0-3,2.5-5.4,5.5-5.4c3,0,5.5,2.4,5.5,5.4v23.4H86v-9.6h34.3c2.3,0,6.1,1.9,7.8,3.9l6.9,8.3
	c1.2,1.5,1.2,4.1,0,5.6l-6.9,8.3c-1.7,2-5.5,3.9-7.8,3.9H86v-3.6H77.5z"/>
</svg>
