<?xml version="1.0" encoding="utf-8"?>
<!-- Generator: Adobe Illustrator 22.0.0, SVG Export Plug-In . SVG Version: 6.00 Build 0)  -->
<svg version="1.1" id="图层_1" xmlns="http://www.w3.org/2000/svg" xmlns:xlink="http://www.w3.org/1999/xlink" x="0px" y="0px"
	 viewBox="0 0 144 144" style="enable-background:new 0 0 144 144;" xml:space="preserve">
<style type="text/css">
	.st0{fill:#666666;}
</style>
<g>
	<path class="st0" d="M139.9,45.3L139.9,45.3l-0.1-0.1c-1.4-1.5-2.7-3-4.1-4.5l-0.7-0.8c-6.9-7.6-18.4-20.2-23.7-25.6
		c-2.6-3.2-6.5-5.2-10.6-5.5h-57c-4.3,0-8.4,2-11.1,5.5c-3.1,3.4-7.8,8.6-12.9,14l-1,1.1C13,35.7,7.2,42,4.4,45.2
		C-1.3,51.5-1.5,61.1,4,67.6L4.4,68c5.3,5.8,16.5,18,29.6,32.1l27.2,29.5c4.4,6.1,12.9,7.4,18.9,3c1.1-0.8,2.1-1.8,3-3l24.5-26.5
		c10.8-11.7,21.6-23.4,32.4-35.1C145.4,61.4,145.4,51.9,139.9,45.3z M130.9,62.3c-6.1,6.7-17.5,19.1-29.9,32.4l-25.8,28
		c-1.9,2.2-2.6,2.2-3.1,2.2h0c-0.5,0-1.2,0-3.2-2.1l-25.8-28c-9.9-10.7-19.7-21.4-29.6-32.1c-2.2-3.2-2.3-6-0.3-8.2
		c3-3.3,9.4-10.3,15.2-16.7c4.7-5.1,9.5-10.3,12.5-13.6c1.8-2,2.6-2,3.3-2h55.5c1.2,0,1.5,0.2,3.5,2.2c5.1,5.2,16.3,17.6,23.1,25
		l1.1,1.2c1.6,1.8,2.9,3.1,3.5,3.8C132.7,56.8,132.7,60,130.9,62.3z"/>
	<path class="st0" d="M101.5,55.3c-0.2-2.7-2.6-4.8-5.3-4.5c-1.3,0.1-2.5,0.7-3.3,1.7L72,77.5L51.1,52.5c-1.8-2-4.9-2.3-6.9-0.5
		c0,0,0,0,0,0c-2,1.8-2.3,4.8-0.6,6.9l24.6,29.4l0.3,0.2c0.2,0.2,0.3,0.3,0.5,0.5l0.3,0.2c0.6,0.4,1.2,0.6,1.8,0.8
		c0.7,0.1,1.5,0.1,2.2-0.1c0.3-0.1,0.7-0.2,1-0.4c0.3-0.2,0.7-0.4,1-0.6c0.1-0.1,0.2-0.2,0.3-0.3l25-29.7
		C101.2,57.9,101.6,56.6,101.5,55.3L101.5,55.3z"/>
</g>
</svg>
