<?xml version="1.0" standalone="no"?><!DOCTYPE svg PUBLIC "-//W3C//DTD SVG 1.1//EN" "http://www.w3.org/Graphics/SVG/1.1/DTD/svg11.dtd"><svg t="1592816302747" class="icon" viewBox="0 0 1024 1024" version="1.1" xmlns="http://www.w3.org/2000/svg" p-id="3214" xmlns:xlink="http://www.w3.org/1999/xlink" width="128" height="128"><defs><style type="text/css"></style></defs><path d="M511.11 563.34c126.98 0 229.92-102.94 229.92-229.92S638.09 103.5 511.11 103.5c-126.98 0-229.92 102.94-229.92 229.92 0.16 126.92 103.01 229.76 229.92 229.92z m0-399.15c93.5 0 169.29 75.79 169.29 169.29s-75.79 169.29-169.29 169.29c-93.5 0-169.29-75.79-169.29-169.29 0.13-93.44 75.85-169.16 169.29-169.29z" p-id="3215"></path><path d="M918.84 785.93A438.207 438.207 0 0 0 690.1 541.34a30.36 30.36 0 0 0-34.07 6.27L555 649.82c-24.41 23.59-63.13 23.59-87.54 0L366.37 547.61a30.36 30.36 0 0 0-34.07-6.27c-105.34 47.88-187.47 135.49-228.44 243.7-19.11 51.94 7.5 109.53 59.43 128.64a100.13 100.13 0 0 0 34.73 6.16l626.53 0.71c55.54-0.14 100.44-45.28 100.29-100.82-0.03-11.53-2.04-22.96-5.95-33.81l-0.05 0.01z m-94.34 74l-626.65-0.71c-21.76 0.17-39.53-17.33-39.7-39.08-0.04-4.7 0.77-9.38 2.38-13.8A377.633 377.633 0 0 1 338.4 605.7l85.89 86.78c47.46 47.98 124.82 48.43 172.84 1.01l1.01-1.01 85.77-86.78a378.027 378.027 0 0 1 178.05 201.11c7.38 20.54-3.28 43.17-23.81 50.55a39.584 39.584 0 0 1-13.63 2.33l-0.02 0.24z" p-id="3216"></path></svg>