<?xml version="1.0" encoding="utf-8"?>
<!-- Generator: Adobe Illustrator 22.0.0, SVG Export Plug-In . SVG Version: 6.00 Build 0)  -->
<svg version="1.1" id="图层_1" xmlns="http://www.w3.org/2000/svg" xmlns:xlink="http://www.w3.org/1999/xlink" x="0px" y="0px"
	 viewBox="0 0 144 144" style="enable-background:new 0 0 144 144;" xml:space="preserve">
<style type="text/css">
	.st0{fill:#333333;}
</style>
<path class="st0" d="M128.7,58.7c0,7.9-2.6,16.5-7.4,25.8c-4.7,9.2-11.4,18.8-19.6,28.7c-8.1,9.8-16.9,18.9-26.3,27.5
	c-2,1.7-4.9,1.8-6.9,0c-2.8-2.5-5.6-5.1-8.3-7.8c-6.3-6.2-12.3-12.7-18-19.5c-8.8-10.5-15.8-20.8-20.5-30.6
	c-4.2-8.7-6.4-16.8-6.4-24.2C15.3,27.4,40.7,2,72,2C103.3,2,128.7,27.4,128.7,58.7L128.7,58.7z M76.4,125.5
	c6.1-6,11.9-12.3,17.4-18.9c7.7-9.3,14-18.4,18.3-26.8c4.1-8,6.2-15.1,6.2-21.1c0-25.6-20.7-46.3-46.3-46.3
	c-25.6,0-46.3,20.7-46.3,46.3c0,0,0,0,0,0c0,5.7,1.8,12.4,5.4,19.7c4.3,8.9,10.9,18.5,19.1,28.4c6.8,8.1,14,15.7,21.7,23
	C73.3,128.5,74.8,127,76.4,125.5z M91.7,58c0,10.9-8.8,19.7-19.7,19.7S52.3,68.9,52.3,58l0,0c0-10.9,8.8-19.7,19.7-19.7
	S91.7,47.1,91.7,58z M81.4,58c0-5.2-4.2-9.4-9.4-9.4c-5.2,0-9.4,4.2-9.4,9.4s4.2,9.4,9.4,9.4C77.2,67.3,81.4,63.1,81.4,58L81.4,58z"
	/>
</svg>
