<?xml version="1.0" standalone="no"?>
  <!DOCTYPE svg PUBLIC "-//W3C//DTD SVG 1.1//EN" "http://www.w3.org/Graphics/SVG/1.1/DTD/svg11.dtd"><svg t="1592816312539" class="icon" viewBox="0 0 1024 1024" version="1.1" xmlns="http://www.w3.org/2000/svg" p-id="3349" xmlns:xlink="http://www.w3.org/1999/xlink" width="128" height="128">
    <defs>
      <style type="text/css"></style>
    </defs>
    <path d="M819.712 592.384c-60.416-25.6-121.856-33.28-168.448-20.992-35.328 9.216-61.44 30.208-73.216 58.368-2.048 2.048-4.608 3.584-6.144 4.608-0.512 0-1.024-0.512-2.048-1.024l-0.512-0.512c-32.768-25.088-64.512-52.736-94.72-82.944-27.136-27.136-52.736-56.32-75.776-86.528-1.536-3.072-2.048-5.12-2.56-7.168 24.576-8.192 44.544-26.112 56.832-51.712 23.552-48.64 19.456-121.344-10.752-194.048-46.592-112.64-136.704-183.296-209.408-163.84l-2.048 0.512c-3.072 1.024-6.144 2.048-9.728 3.584-43.52 9.728-80.896 29.184-110.08 57.856-134.144 131.072-62.976 411.648 162.304 637.952 173.056 174.08 390.656 264.704 541.696 224.768 38.912-10.24 72.704-28.672 99.328-55.296 25.6-25.088 45.056-58.88 59.904-103.424v-0.512c1.024-4.096 1.536-5.632 2.048-8.192l1.024-4.608c17.92-73.216-48.64-160.256-157.696-206.848z m81.92 184.832c-1.024 4.096-1.536 6.656-2.048 8.704l-0.512 1.536c-7.68 28.16-22.528 55.296-41.472 73.216-16.896 16.896-38.912 28.672-64.512 35.328-122.368 32.256-313.344-51.712-464.896-203.776C140.8 502.784 66.56 261.12 165.888 163.84c16.896-16.896 38.912-28.672 64.512-35.328 3.584-1.024 7.168-1.536 10.752-2.56 3.072-0.512 6.144-1.536 9.216-3.072 0.512-0.512 1.536-0.512 1.536-1.024 12.8-3.584 33.792 6.656 54.272 25.6 25.088 23.04 47.104 55.296 61.952 92.16 20.992 50.688 26.112 102.912 12.8 130.56-5.12 10.24-10.24 11.776-11.776 12.288-1.536 0.512-32.768 9.216-47.104 40.448-10.24 23.04-8.192 49.152 6.656 77.824 1.024 2.048 2.56 4.096 3.584 6.144 25.6 33.792 54.272 66.56 84.48 97.28 33.28 33.792 69.12 64.512 105.984 92.672 2.048 1.536 4.096 3.072 6.656 4.096 19.456 11.264 40.448 14.336 60.928 8.704 32.256-8.704 51.2-35.328 53.248-38.4 2.048-3.072 4.096-6.656 5.12-10.24 2.56-8.192 14.336-12.288 20.992-14.336 29.696-7.68 73.216-1.536 117.248 17.408 78.848 32.768 120.32 89.088 114.688 113.152z" p-id="3350"></path></svg>
