<?xml version="1.0" encoding="utf-8"?>
<!-- Generator: Adobe Illustrator 24.2.0, SVG Export Plug-In . SVG Version: 6.00 Build 0)  -->
<svg version="1.1" id="图层_1" xmlns="http://www.w3.org/2000/svg" xmlns:xlink="http://www.w3.org/1999/xlink" x="0px" y="0px"
	 viewBox="0 0 128 128" style="enable-background:new 0 0 128 128;" xml:space="preserve">
<path d="M13.5,3.4h101.1c5.6,0,10.1,4.5,10.1,10.1v98.7c0,5.6-4.5,10.1-10.1,10.1c0,0,0,0,0,0c-1.2,0-2.4-0.2-3.5-0.6l-17-6.3
	c-1.6-0.6-3.3-0.6-4.9,0.1l-20.6,8.6c-1.6,0.7-3.3,0.7-4.9,0.1l-24.2-8.9c-1.5-0.5-3.1-0.5-4.6,0l-17.8,6.5c-5.2,1.9-11-0.8-12.9-6
	c0,0,0,0,0,0c-0.4-1.1-0.6-2.3-0.6-3.5V13.5C3.4,7.9,7.9,3.4,13.5,3.4C13.5,3.4,13.5,3.4,13.5,3.4z M85.2,106.2
	c3.9-1.6,8.3-1.7,12.3-0.2l17,6.3V13.5H13.5v98.8l17.8-6.5c3.7-1.4,7.8-1.4,11.5,0l23,8.4C65.8,114.2,85.2,106.2,85.2,106.2z
	 M70.6,87.9h-47c-1.9,0-3.4-1.5-3.4-3.3v-4.9c0-2.4,0.5-4.6,1.4-6.8c1-2.1,2.4-4.1,4-5.8c2-1.8,4.3-3.3,6.9-4.1l-0.6-0.5
	c-3.9-3.8-6.3-9-6.3-14.7s2.4-10.9,6.3-14.7c3.9-3.8,9.3-6.1,15.2-6.1c6,0,11.3,2.3,15.3,6.1c3.9,3.7,6.4,8.9,6.4,14.7
	s-2.5,10.9-6.4,14.7L62,63l0.7,0.3c2.3,0.9,4.3,2.3,6,3.8c1.7,1.7,3.1,3.6,4.1,5.8c0.8,2.2,1.4,4.4,1.4,6.8v4.9
	C74.1,86.4,72.6,87.9,70.6,87.9L70.6,87.9z M30.3,80.4v1.3H64v-1.3c0-1.3-0.3-2.4-0.8-3.6c-0.5-1.2-1.2-2.2-2.1-3
	c-0.9-0.9-2-1.6-3.1-2c-1.2-0.5-2.5-0.7-3.7-0.7H40c-2.6,0-5,1-6.9,2.7c-0.9,0.9-1.6,1.9-2.1,3C30.6,77.9,30.3,79.1,30.3,80.4z
	 M46.8,33.8c-3.6,0-6.9,1.5-9.2,3.9c-2.5,2.5-3.9,5.8-3.9,9.3c0,3.5,1.4,6.9,3.9,9.3c5.1,5.1,13.4,5.1,18.5,0
	c2.4-2.4,3.8-5.7,3.8-9.3c0-3.6-1.4-7-3.8-9.3C53.6,35.2,50.3,33.8,46.8,33.8L46.8,33.8z M85.9,44c-2.8,0-5.1-2.3-5.1-5.1
	c0-2.8,2.3-5.1,5.1-5.1h16.8c2.8,0,5.1,2.3,5.1,5.1c0,2.8-2.3,5.1-5.1,5.1C102.7,44,85.9,44,85.9,44z M85.9,64.2
	c-2.8,0-5.1-2.3-5.1-5.1s2.3-5.1,5.1-5.1h16.8c2.8,0,5.1,2.3,5.1,5.1s-2.3,5.1-5.1,5.1C102.7,64.2,85.9,64.2,85.9,64.2z M85.9,84.5
	c-2.8,0-5.1-2.3-5.1-5.1c0-2.8,2.3-5.1,5.1-5.1h16.8c2.8,0,5.1,2.3,5.1,5.1c0,2.8-2.3,5.1-5.1,5.1C102.7,84.5,85.9,84.5,85.9,84.5z"
	/>
</svg>
