<?xml version="1.0" standalone="no"?><!DOCTYPE svg PUBLIC "-//W3C//DTD SVG 1.1//EN" "http://www.w3.org/Graphics/SVG/1.1/DTD/svg11.dtd"><svg t="1591582048076" class="icon" viewBox="0 0 1024 1024" version="1.1" xmlns="http://www.w3.org/2000/svg" p-id="69767" xmlns:xlink="http://www.w3.org/1999/xlink" width="128" height="128"><defs><style type="text/css"></style></defs><path d="M633.322 512.712L235.475 115.935A64.022 64.022 0 0 1 275.59 4.54a64.111 64.111 0 0 1 46.213 16.607l449.314 443.748 0.623 0.534 1.78 1.781 2.004 2.048 0.267 0.312a63.66 63.66 0 0 1 16.607 46.169 63.933 63.933 0 0 1-20.48 44.076l-450.115 444.416a63.8 63.8 0 0 1-46.169 16.607 63.844 63.844 0 0 1-61.04-67.005 64.067 64.067 0 0 1 20.926-44.388l397.802-396.69z" p-id="69768"></path></svg>