<?xml version="1.0" standalone="no"?><!DOCTYPE svg PUBLIC "-//W3C//DTD SVG 1.1//EN" "http://www.w3.org/Graphics/SVG/1.1/DTD/svg11.dtd"><svg t="1592312214937" class="icon" viewBox="0 0 1029 1024" version="1.1" xmlns="http://www.w3.org/2000/svg" p-id="65135" xmlns:xlink="http://www.w3.org/1999/xlink" width="128.625" height="128"><defs><style type="text/css"></style></defs><path d="M1011.38383 930.478298 785.910468 704.644085c-4.888511-4.903489-10.502809-8.633191-16.497021-11.217702 57.356255-72.509277 91.601702-164.135489 91.601702-263.753532 0-235.005277-190.515745-425.496511-425.491064-425.496511C200.546043 4.17634 10.028936 194.667574 10.028936 429.672851c0 234.972596 190.517106 425.491064 425.495149 425.491064 99.713362 0 191.41583-34.309447 263.956426-91.766468 2.584511 5.96834 6.295149 11.564936 11.170043 16.453447L936.123915 1005.685106c20.726468 20.779574 54.434043 20.779574 75.206809 0.053106C1032.110298 985.01583 1032.110298 951.305532 1011.38383 930.478298L1011.38383 930.478298zM435.522723 748.794553c-176.234213 0-319.12034-142.892936-319.12034-319.121702 0-176.231489 142.886128-319.12034 319.12034-319.12034 176.231489 0 319.121702 142.884766 319.121702 319.12034C754.644426 605.901617 611.755574 748.794553 435.522723 748.794553L435.522723 748.794553zM435.522723 748.794553" p-id="65136"></path></svg>