<?xml version="1.0" encoding="utf-8"?>
<!-- Generator: Adobe Illustrator 24.2.0, SVG Export Plug-In . SVG Version: 6.00 Build 0)  -->
<svg version="1.1" id="图层_1" xmlns="http://www.w3.org/2000/svg" xmlns:xlink="http://www.w3.org/1999/xlink" x="0px" y="0px"
	 viewBox="0 0 128 128" style="enable-background:new 0 0 128 128;" xml:space="preserve">
<path d="M40.8,36.9h46.5v11.6H40.8V36.9z M40.8,79.5h46.5v11.6H40.8V79.5z M126,77.8v41.3c0,1.8-0.6,3.6-1.7,4.9c-1.1,1.3-2.5,2-4,2
	H7.6c-1.5,0-2.9-0.7-4-2c-1.1-1.3-1.7-3-1.7-4.9V77.8c6.2,0,11.3-6.2,11.3-13.8S8.2,50.2,2,50.2V8.9C2,7.1,2.6,5.3,3.7,4
	c1.1-1.3,2.5-2,4-2h112.7c1.5,0,2.9,0.7,4,2c1.1,1.3,1.7,3,1.7,4.9v41.3c-6.2,0-11.3,6.2-11.3,13.8S119.8,77.8,126,77.8z
	 M114.4,85.6c-5.1-3.6-11.2-9-11.2-21.6s6.1-18,11.2-21.6V13.6H13.6v28.8C19.2,46,24.8,52.2,24.8,64s-5.6,18-11.2,21.6v28.8h100.8
	V85.6z"/>
</svg>
